<svg width="81" height="27" viewBox="0 0 81 27" fill="none" xmlns="http://www.w3.org/2000/svg">
<path d="M1.72742 -4.52941e-10H11.3913C12.3426 -4.52941e-10 13.1187 0.764929 13.1187 1.71129V11.2887C13.1187 12.2311 12.3466 13 11.3913 13H1.72742C0.776147 13 -4.57392e-10 12.2351 -4.57392e-10 11.2887V1.70735C-4.57392e-10 0.764929 0.772173 -4.52941e-10 1.72742 -4.52941e-10Z" transform="translate(27 14)" fill="url(#paint0_linear)"/>
<path d="M3.8887 2.87463C1.84295 2.87463 0.183224 4.51888 0.183224 6.54946C0.183224 8.58005 1.84295 10.2204 3.8887 10.2204C5.93444 10.2204 7.59417 8.57611 7.59417 6.54553C7.59417 4.51494 5.93842 2.87463 3.8887 2.87463V2.87463ZM3.8887 9.136C2.44781 9.136 1.2777 7.97673 1.2777 6.54946C1.2777 5.12206 2.44781 3.96292 3.8887 3.96292C5.32958 3.96292 6.4997 5.12219 6.4997 6.54946C6.4997 7.97687 5.33356 9.136 3.8887 9.136ZM3.8887 4.4912V6.41933C3.8887 6.47456 3.94844 6.51391 4.0001 6.48636L5.72752 5.59917C5.76726 5.57949 5.77932 5.53213 5.75932 5.49265C5.40111 4.86966 4.73637 4.44384 3.96817 4.41615C3.92844 4.41615 3.88856 4.44764 3.88856 4.49106L3.8887 4.4912ZM1.46872 3.07573L1.24179 2.85101C1.18912 2.79853 1.12649 2.75689 1.0575 2.72847C0.988512 2.70005 0.91453 2.68542 0.839811 2.68542C0.765092 2.68542 0.69111 2.70005 0.622122 2.72847C0.553134 2.75689 0.490502 2.79853 0.437828 2.85101L0.167191 3.11915C0.114204 3.17135 0.0721555 3.23339 0.0434631 3.30173C0.0147707 3.37007 1.11976e-07 3.44335 1.11976e-07 3.51736C1.11976e-07 3.59137 0.0147707 3.66465 0.0434631 3.73299C0.0721555 3.80132 0.114204 3.86337 0.167191 3.91556L0.390142 4.13635C0.425907 4.1719 0.477705 4.16389 0.509496 4.12847C0.640897 3.94954 0.785934 3.78083 0.943338 3.62381C1.10217 3.46553 1.2739 3.32047 1.4568 3.19012C1.49654 3.16651 1.50065 3.11128 1.46872 3.07573V3.07573ZM5.10266 2.49223V2.04673C5.10268 1.9727 5.08797 1.89938 5.05937 1.83098C5.03077 1.76257 4.98884 1.70041 4.93599 1.64806C4.88313 1.5957 4.82037 1.55417 4.7513 1.52583C4.68223 1.49749 4.60819 1.48291 4.53343 1.48291H3.20806C3.1333 1.48291 3.05926 1.49749 2.99019 1.52583C2.92112 1.55417 2.85837 1.5957 2.80551 1.64806C2.75265 1.70041 2.71072 1.76257 2.68212 1.83098C2.65352 1.89938 2.63881 1.9727 2.63883 2.04673V2.50417C2.63883 2.55546 2.68666 2.59088 2.73832 2.57908C3.11344 2.47162 3.50203 2.41721 3.89253 2.41746C4.2706 2.41746 4.64484 2.46875 5.00701 2.56727C5.01843 2.57007 5.03034 2.57024 5.04184 2.56777C5.05334 2.5653 5.06411 2.56026 5.07333 2.55303C5.08255 2.54579 5.08998 2.53657 5.09504 2.52605C5.1001 2.51554 5.10266 2.50401 5.10252 2.49236L5.10266 2.49223ZM29.9787 9.53414C29.9787 10.5869 29.7081 11.3557 29.1628 11.8447C28.6176 12.3336 27.7856 12.5781 26.6632 12.5781C26.2532 12.5781 25.4016 12.4993 24.7209 12.3495L24.9717 11.1271C25.5409 11.2454 26.2931 11.2769 26.6872 11.2769C27.3121 11.2769 27.7578 11.1507 28.0245 10.8984C28.2912 10.646 28.4226 10.2715 28.4226 9.77473V9.52233C28.2673 9.59724 28.0644 9.67214 27.8136 9.75098C27.5628 9.82589 27.2723 9.86538 26.9459 9.86538C26.516 9.86538 26.1261 9.79834 25.7718 9.66427C25.4176 9.5302 25.1111 9.33303 24.8604 9.07277C24.6097 8.8125 24.4107 8.48533 24.2713 8.09493C24.132 7.70452 24.0604 7.00663 24.0604 6.4941C24.0604 6.01305 24.1361 5.40973 24.2834 5.00766C24.4347 4.60545 24.6495 4.25847 24.9402 3.97066C25.2267 3.68284 25.577 3.46206 25.987 3.30031C26.397 3.13869 26.8785 3.03611 27.3999 3.03611C27.9054 3.03611 28.371 3.09921 28.8248 3.17411C29.2785 3.24902 29.6646 3.32786 29.979 3.41457V9.534L29.9787 9.53414ZM25.6522 6.49016C25.6522 7.13676 25.7955 7.85447 26.0821 8.15409C26.3686 8.45371 26.7389 8.60352 27.1926 8.60352C27.4299 8.60431 27.6661 8.56978 27.8931 8.50107C28.1121 8.43403 28.2872 8.35519 28.4264 8.26061V4.43203C28.315 4.40842 27.8492 4.3137 27.3995 4.3019C26.8344 4.28616 26.4045 4.51481 26.1019 4.88146C25.8035 5.24812 25.6522 5.89092 25.6522 6.49016ZM37.3658 6.49016C37.3658 7.01056 37.2902 7.4049 37.1349 7.83466C36.9796 8.26441 36.7608 8.63107 36.4781 8.93476C36.1942 9.24043 35.8465 9.48126 35.4591 9.64053C35.0611 9.80608 34.4481 9.90079 34.1417 9.90079C33.8352 9.89686 33.2264 9.81015 32.8322 9.64053C32.4381 9.47104 32.1 9.23832 31.8173 8.93476C31.5347 8.6312 31.3157 8.26441 31.1565 7.83466C30.9973 7.4049 30.9176 7.01056 30.9176 6.49016C30.9176 5.96976 30.9893 5.4689 31.1485 5.04308C31.3078 4.61726 31.5306 4.25454 31.8173 3.95085C32.1038 3.64729 32.4461 3.41457 32.8362 3.24902C33.2303 3.08346 33.664 3.00449 34.1338 3.00449C34.6034 3.00449 35.0372 3.08726 35.4353 3.24902C35.8334 3.41457 36.1755 3.64729 36.4543 3.95085C36.7368 4.2544 36.9558 4.61726 37.115 5.04308C37.2822 5.4689 37.3658 5.96962 37.3658 6.49016ZM35.7738 6.4941C35.7738 5.82768 35.6265 5.27173 35.3399 4.8854C35.0534 4.49499 34.6513 4.3019 34.1379 4.3019C33.6244 4.3019 33.2225 4.49513 32.9358 4.8854C32.6493 5.2758 32.5099 5.82782 32.5099 6.4941C32.5099 7.16838 32.6533 7.62175 32.9398 8.01215C33.2264 8.40649 33.6284 8.59959 34.1419 8.59959C34.6553 8.59959 35.0572 8.40242 35.3439 8.01215C35.6304 7.61781 35.7738 7.16838 35.7738 6.4941ZM40.8326 9.90079C38.2813 9.9126 38.2813 7.8584 38.2813 7.5311L38.2773 0.244528L39.8336 1.13882e-08V7.23921C39.8336 7.42458 39.8336 8.59959 40.8326 8.60352V9.90079V9.90079ZM43.5748 9.90079H42.0106V3.24508L43.5748 3.00055V9.90066V9.90079ZM42.7907 2.27118C43.3122 2.27118 43.738 1.85323 43.738 1.33676C43.738 0.820294 43.3161 0.402344 42.7907 0.402344C42.2654 0.402344 41.8434 0.820294 41.8434 1.33676C41.8434 1.85323 42.2693 2.27118 42.7907 2.27118ZM47.4635 3.00462C47.977 3.00462 48.4108 3.06772 48.7611 3.19392C49.1113 3.32012 49.3939 3.49748 49.6009 3.72233C49.8079 3.94705 49.9552 4.25467 50.0427 4.57791C50.1343 4.90127 50.1781 5.25612 50.1781 5.64639V9.61298C49.9393 9.66427 49.5771 9.72344 49.0916 9.79441C48.606 9.86538 48.0607 9.90093 47.4557 9.90093C47.0537 9.90093 46.6835 9.86144 46.3532 9.78654C46.0188 9.71163 45.7362 9.58937 45.4974 9.41988C45.2625 9.25039 45.0794 9.03341 44.9442 8.76541C44.8128 8.49727 44.7452 8.11881 44.7452 7.72447C44.7452 7.34601 44.8209 7.10542 44.9682 6.84515C45.1171 6.58737 45.3258 6.36842 45.5772 6.20642C45.8359 6.04087 46.1303 5.92254 46.4687 5.85157C46.8169 5.77964 47.1717 5.74394 47.5274 5.74504C47.6985 5.74504 47.8776 5.75685 48.0687 5.77653C48.2597 5.7962 48.4586 5.83176 48.6737 5.88305V5.63065C48.6737 5.45316 48.6538 5.28367 48.6099 5.12599C48.5682 4.97072 48.492 4.82661 48.387 4.70411C48.2795 4.58184 48.1402 4.48726 47.9651 4.42022C47.7899 4.35319 47.567 4.3019 47.3003 4.3019C46.9421 4.3019 46.6157 4.34532 46.3173 4.39648C46.0188 4.44777 45.772 4.50694 45.585 4.57397L45.3979 3.30832C45.5929 3.24128 45.8836 3.17425 46.2576 3.10721C46.6317 3.04018 47.0338 3.00476 47.4637 3.00476L47.4635 3.00462ZM47.5949 8.59972C48.0725 8.59972 48.4269 8.57218 48.6735 8.52482V6.95547C48.5504 6.92309 48.4255 6.89808 48.2994 6.88056C48.1202 6.85435 47.9393 6.84115 47.7581 6.84108C47.587 6.84108 47.4119 6.85288 47.2367 6.88056C47.0616 6.90418 46.9024 6.95154 46.7632 7.01857C46.6238 7.0856 46.5084 7.18019 46.4248 7.30245C46.3373 7.42471 46.2975 7.49568 46.2975 7.68091C46.2975 8.04363 46.4248 8.25261 46.6557 8.39061C46.8906 8.53255 47.201 8.59959 47.5951 8.59959L47.5949 8.59972ZM16.8601 3.04411C17.3736 3.04411 17.8074 3.10721 18.1577 3.23341C18.5079 3.35961 18.7905 3.53697 18.9975 3.76182C19.2084 3.99047 19.3518 4.29416 19.4393 4.61739C19.5309 4.94076 19.5747 5.29561 19.5747 5.68588V9.65247C19.3359 9.70376 18.9737 9.76293 18.4882 9.8339C18.0025 9.90487 17.4573 9.94042 16.8523 9.94042C16.4503 9.94042 16.0801 9.90093 15.7497 9.82602C15.4154 9.75112 15.1328 9.62886 14.894 9.45937C14.6591 9.28988 14.476 9.0729 14.3408 8.8049C14.2094 8.53676 14.1418 8.1583 14.1418 7.76396C14.1418 7.3855 14.2175 7.1449 14.3648 6.88464C14.5137 6.62686 14.7224 6.40791 14.9737 6.24591C15.2325 6.08035 15.5269 5.96203 15.8653 5.89106C16.2135 5.81913 16.5683 5.78343 16.924 5.78453C17.0951 5.78453 17.2742 5.79634 17.4652 5.81601C17.6523 5.83569 17.8552 5.87124 18.0702 5.92254V5.67014C18.0702 5.49265 18.0504 5.32316 18.0065 5.16548C17.9647 5.01021 17.8886 4.86609 17.7836 4.74359C17.6761 4.62133 17.5368 4.52675 17.3616 4.45971C17.1865 4.39268 16.9636 4.34139 16.6969 4.34139C16.3387 4.34139 16.0123 4.38481 15.7138 4.43597C15.4154 4.48726 15.1686 4.54642 14.9815 4.61346L14.7945 3.3478C14.9895 3.28077 15.2801 3.21373 15.6542 3.1467C16.0283 3.07573 16.4304 3.04425 16.8603 3.04425L16.8601 3.04411ZM16.9955 8.64315C17.4731 8.64315 17.8274 8.6156 18.0741 8.56824V6.99889C17.951 6.96651 17.8261 6.9415 17.7 6.92399C17.5208 6.89777 17.3399 6.88458 17.1587 6.8845C16.9876 6.8845 16.8124 6.89631 16.6373 6.92399C16.4622 6.9476 16.3029 6.99496 16.1637 7.06199C16.0244 7.12903 15.909 7.22361 15.8254 7.34587C15.7378 7.46814 15.6981 7.53911 15.6981 7.72434C15.6981 8.08706 15.8254 8.29603 16.0563 8.43404C16.2872 8.57204 16.6015 8.64301 16.9956 8.64301L16.9955 8.64315ZM23.304 9.90093C20.7528 9.91274 20.7528 7.85854 20.7528 7.53124L20.7488 0.244663L22.3051 0.0001357V7.23935C22.3051 7.42471 22.3051 8.59972 23.304 8.60366V9.90093Z" transform="translate(29.8219 14.4099)" fill="white"/>
<path d="M2.63428 12H1.03467V2.75781H2.63428V12ZM5.89062 5.13184L5.93506 5.92529C6.44287 5.31169 7.10938 5.00488 7.93457 5.00488C9.36491 5.00488 10.0928 5.82373 10.1182 7.46143V12H8.57568V7.55029C8.57568 7.11442 8.48047 6.79281 8.29004 6.58545C8.10384 6.37386 7.79704 6.26807 7.36963 6.26807C6.74756 6.26807 6.28418 6.54948 5.97949 7.1123V12H4.43701V5.13184H5.89062ZM20.9473 8.63574C20.9473 9.69792 20.7061 10.5464 20.2236 11.1812C19.7412 11.8117 19.0938 12.127 18.2812 12.127C17.528 12.127 16.925 11.8794 16.4722 11.3843V14.6406H14.9297V5.13184H16.3516L16.415 5.83008C16.8678 5.27995 17.4836 5.00488 18.2622 5.00488C19.1001 5.00488 19.756 5.31803 20.23 5.94434C20.7082 6.56641 20.9473 7.4318 20.9473 8.54053V8.63574ZM19.4111 8.50244C19.4111 7.81689 19.2736 7.27311 18.9985 6.87109C18.7277 6.46908 18.3384 6.26807 17.8306 6.26807C17.2 6.26807 16.7472 6.52832 16.4722 7.04883V10.0957C16.7515 10.6289 17.2085 10.8955 17.8433 10.8955C18.3341 10.8955 18.7171 10.6987 18.9922 10.3052C19.2715 9.90739 19.4111 9.30648 19.4111 8.50244ZM26.3618 12C26.2941 11.8688 26.2349 11.6551 26.1841 11.3589C25.6932 11.8709 25.0923 12.127 24.3813 12.127C23.6916 12.127 23.1287 11.9302 22.6929 11.5366C22.257 11.1431 22.0391 10.6564 22.0391 10.0767C22.0391 9.34456 22.3099 8.78385 22.8516 8.39453C23.3975 8.00098 24.1761 7.8042 25.1875 7.8042H26.1333V7.35352C26.1333 6.99805 26.0339 6.71452 25.835 6.50293C25.6361 6.28711 25.3335 6.1792 24.9272 6.1792C24.576 6.1792 24.2882 6.26807 24.064 6.4458C23.8397 6.6193 23.7275 6.84147 23.7275 7.1123H22.1851C22.1851 6.73568 22.3099 6.38444 22.5596 6.05859C22.8092 5.72852 23.1478 5.47038 23.5752 5.28418C24.0068 5.09798 24.4871 5.00488 25.0161 5.00488C25.8201 5.00488 26.4613 5.20801 26.9395 5.61426C27.4176 6.01628 27.6631 6.58333 27.6758 7.31543V10.4131C27.6758 11.0309 27.7625 11.5239 27.936 11.8921V12H26.3618ZM24.667 10.8892C24.9717 10.8892 25.2573 10.8151 25.5239 10.667C25.7948 10.5189 25.9979 10.32 26.1333 10.0703V8.77539H25.3018C24.7305 8.77539 24.3009 8.87484 24.0132 9.07373C23.7254 9.27262 23.5815 9.55404 23.5815 9.91797C23.5815 10.2142 23.6789 10.4512 23.8735 10.6289C24.0724 10.8024 24.3369 10.8892 24.667 10.8892ZM32.8872 6.54102C32.6841 6.50716 32.4746 6.49023 32.2588 6.49023C31.5521 6.49023 31.076 6.76107 30.8306 7.30273V12H29.2881V5.13184H30.7607L30.7988 5.8999C31.1712 5.30322 31.6875 5.00488 32.3477 5.00488C32.5677 5.00488 32.7497 5.03451 32.8936 5.09375L32.8872 6.54102ZM36.1118 3.4624V5.13184H37.3242V6.27441H36.1118V10.1084C36.1118 10.3708 36.1626 10.5612 36.2642 10.6797C36.37 10.7939 36.5562 10.8511 36.8228 10.8511C37.0005 10.8511 37.1803 10.8299 37.3623 10.7876V11.981C37.0111 12.0783 36.6725 12.127 36.3467 12.127C35.1618 12.127 34.5693 11.4731 34.5693 10.1655V6.27441H33.4395V5.13184H34.5693V3.4624H36.1118ZM39.9395 5.13184L39.9839 5.92529C40.4917 5.31169 41.1582 5.00488 41.9834 5.00488C43.4137 5.00488 44.1416 5.82373 44.167 7.46143V12H42.6245V7.55029C42.6245 7.11442 42.5293 6.79281 42.3389 6.58545C42.1527 6.37386 41.8459 6.26807 41.4185 6.26807C40.7964 6.26807 40.333 6.54948 40.0283 7.1123V12H38.4858V5.13184H39.9395ZM48.769 12.127C47.7915 12.127 46.998 11.8201 46.3887 11.2065C45.7835 10.5887 45.481 9.76774 45.481 8.74365V8.55322C45.481 7.86768 45.6121 7.25618 45.8745 6.71875C46.1411 6.17708 46.5135 5.75602 46.9917 5.45557C47.4699 5.15511 48.0031 5.00488 48.5913 5.00488C49.5265 5.00488 50.248 5.30322 50.7559 5.8999C51.2679 6.49658 51.5239 7.34082 51.5239 8.43262V9.05469H47.0361C47.0827 9.62174 47.271 10.0703 47.6011 10.4004C47.9354 10.7305 48.3543 10.8955 48.8579 10.8955C49.5646 10.8955 50.1401 10.6099 50.5845 10.0386L51.416 10.832C51.141 11.2425 50.7728 11.562 50.3115 11.7905C49.8545 12.0148 49.3403 12.127 48.769 12.127ZM48.585 6.24268C48.1618 6.24268 47.819 6.39079 47.5566 6.68701C47.2985 6.98324 47.1335 7.39583 47.0615 7.9248H50.0005V7.81055C49.9666 7.29427 49.8291 6.90495 49.5879 6.64258C49.3467 6.37598 49.0124 6.24268 48.585 6.24268ZM56.3228 6.54102C56.1196 6.50716 55.9102 6.49023 55.6943 6.49023C54.9876 6.49023 54.5116 6.76107 54.2661 7.30273V12H52.7236V5.13184H54.1963L54.2344 5.8999C54.6068 5.30322 55.123 5.00488 55.7832 5.00488C56.0033 5.00488 56.1852 5.03451 56.3291 5.09375L56.3228 6.54102ZM61.147 10.1338C61.147 9.85872 61.0327 9.64925 60.8042 9.50537C60.5799 9.36149 60.2054 9.23454 59.6807 9.12451C59.1559 9.01449 58.7179 8.87484 58.3667 8.70557C57.5965 8.33317 57.2114 7.79362 57.2114 7.08691C57.2114 6.49447 57.4611 5.99935 57.9604 5.60156C58.4598 5.20378 59.0946 5.00488 59.8647 5.00488C60.6857 5.00488 61.348 5.20801 61.8516 5.61426C62.3594 6.02051 62.6133 6.54736 62.6133 7.19482H61.0708C61.0708 6.8986 60.9608 6.65316 60.7407 6.4585C60.5207 6.2596 60.2287 6.16016 59.8647 6.16016C59.5262 6.16016 59.249 6.23844 59.0332 6.39502C58.8216 6.5516 58.7158 6.76107 58.7158 7.02344C58.7158 7.26042 58.8153 7.4445 59.0142 7.57568C59.2131 7.70687 59.6151 7.84017 60.2202 7.97559C60.8254 8.10677 61.2993 8.26546 61.6421 8.45166C61.9891 8.63363 62.2451 8.85368 62.4102 9.11182C62.5794 9.36995 62.6641 9.68311 62.6641 10.0513C62.6641 10.6691 62.408 11.1706 61.896 11.5557C61.384 11.9365 60.7132 12.127 59.8838 12.127C59.321 12.127 58.8195 12.0254 58.3794 11.8223C57.9393 11.6191 57.5965 11.3398 57.3511 10.9844C57.1056 10.6289 56.9829 10.2459 56.9829 9.83545H58.481C58.5021 10.1994 58.6396 10.4808 58.8936 10.6797C59.1475 10.8743 59.4839 10.9717 59.9028 10.9717C60.3091 10.9717 60.618 10.8955 60.8296 10.7432C61.0412 10.5866 61.147 10.3835 61.147 10.1338ZM65.5332 5.88086C66.0368 5.29688 66.6737 5.00488 67.4438 5.00488C68.908 5.00488 69.6507 5.84066 69.6719 7.51221V12H68.1294V7.56934C68.1294 7.09538 68.0257 6.76107 67.8184 6.56641C67.6152 6.36751 67.3148 6.26807 66.917 6.26807C66.2992 6.26807 65.8379 6.54313 65.5332 7.09326V12H63.9907V2.25H65.5332V5.88086ZM72.8774 12H71.335V5.13184H72.8774V12ZM71.2397 3.34814C71.2397 3.11117 71.3138 2.91439 71.4619 2.75781C71.6143 2.60124 71.8301 2.52295 72.1094 2.52295C72.3887 2.52295 72.6045 2.60124 72.7568 2.75781C72.9092 2.91439 72.9854 3.11117 72.9854 3.34814C72.9854 3.58089 72.9092 3.77555 72.7568 3.93213C72.6045 4.08447 72.3887 4.16064 72.1094 4.16064C71.8301 4.16064 71.6143 4.08447 71.4619 3.93213C71.3138 3.77555 71.2397 3.58089 71.2397 3.34814ZM80.5771 8.63574C80.5771 9.69792 80.3359 10.5464 79.8535 11.1812C79.3711 11.8117 78.7236 12.127 77.9111 12.127C77.1579 12.127 76.5549 11.8794 76.1021 11.3843V14.6406H74.5596V5.13184H75.9814L76.0449 5.83008C76.4977 5.27995 77.1134 5.00488 77.8921 5.00488C78.73 5.00488 79.3859 5.31803 79.8599 5.94434C80.3381 6.56641 80.5771 7.4318 80.5771 8.54053V8.63574ZM79.041 8.50244C79.041 7.81689 78.9035 7.27311 78.6284 6.87109C78.3576 6.46908 77.9683 6.26807 77.4604 6.26807C76.8299 6.26807 76.3771 6.52832 76.1021 7.04883V10.0957C76.3813 10.6289 76.8384 10.8955 77.4731 10.8955C77.964 10.8955 78.347 10.6987 78.6221 10.3052C78.9014 9.90739 79.041 9.30648 79.041 8.50244ZM6.82373 24.8735L7.91553 20.1318H9.41992L7.54736 27H6.27783L4.80518 22.2837L3.35791 27H2.08838L0.209473 20.1318H1.71387L2.82471 24.8228L4.23389 20.1318H5.39551L6.82373 24.8735ZM12.0923 27H10.5498V20.1318H12.0923V27ZM10.4546 18.3481C10.4546 18.1112 10.5286 17.9144 10.6768 17.7578C10.8291 17.6012 11.0449 17.5229 11.3242 17.5229C11.6035 17.5229 11.8193 17.6012 11.9717 17.7578C12.124 17.9144 12.2002 18.1112 12.2002 18.3481C12.2002 18.5809 12.124 18.7756 11.9717 18.9321C11.8193 19.0845 11.6035 19.1606 11.3242 19.1606C11.0449 19.1606 10.8291 19.0845 10.6768 18.9321C10.5286 18.7756 10.4546 18.5809 10.4546 18.3481ZM15.7104 18.4624V20.1318H16.9229V21.2744H15.7104V25.1084C15.7104 25.3708 15.7612 25.5612 15.8628 25.6797C15.9686 25.7939 16.1548 25.8511 16.4214 25.8511C16.5991 25.8511 16.779 25.8299 16.9609 25.7876V26.981C16.6097 27.0783 16.2712 27.127 15.9453 27.127C14.7604 27.127 14.168 26.4731 14.168 25.1655V21.2744H13.0381V20.1318H14.168V18.4624H15.7104ZM19.627 20.8809C20.1305 20.2969 20.7674 20.0049 21.5376 20.0049C23.0018 20.0049 23.7445 20.8407 23.7656 22.5122V27H22.2231V22.5693C22.2231 22.0954 22.1195 21.7611 21.9121 21.5664C21.709 21.3675 21.4085 21.2681 21.0107 21.2681C20.3929 21.2681 19.9316 21.5431 19.627 22.0933V27H18.0845V17.25H19.627V20.8809Z" transform="translate(0 -2)" fill="white"/>
<defs>
<linearGradient id="paint0_linear" x2="1" gradientUnits="userSpaceOnUse" gradientTransform="translate(-15.6202 6.6224) scale(30.6739 30.3963) rotate(-44.0724)">
<stop stop-color="#00AEFF"/>
<stop offset="1" stop-color="#3369E7"/>
</linearGradient>
</defs>
</svg>
